<?xml version="1.0" standalone="no"?>
<!DOCTYPE svg PUBLIC "-//W3C//DTD SVG 20010904//EN"
 "http://www.w3.org/TR/2001/REC-SVG-20010904/DTD/svg10.dtd">
<svg version="1.0" xmlns="http://www.w3.org/2000/svg"
 width="563.000000pt" height="375.000000pt" viewBox="0 0 563.000000 375.000000"
 preserveAspectRatio="xMidYMid meet">
<metadata>
Created by potrace 1.16, written by Peter Selinger 2001-2019
</metadata>
<g transform="translate(0.000000,375.000000) scale(0.100000,-0.100000)"
fill="#000000" stroke="none">
<path d="M1778 2313 c419 -2 1105 -2 1525 0 419 1 76 2 -763 2 -839 0 -1182
-1 -762 -2z"/>
<path d="M995 2288 c-33 -5 -61 -12 -63 -18 -2 -6 -8 -8 -13 -4 -5 3 -9 0 -9
-6 0 -6 -5 -8 -11 -5 -6 4 -13 -2 -16 -14 -3 -11 -9 -18 -14 -15 -5 3 -9 -4
-9 -16 0 -12 3 -19 8 -17 4 3 5 -158 2 -356 -4 -314 -3 -364 10 -374 8 -7 22
-19 30 -27 50 -48 -36 -46 1631 -46 l1556 0 39 26 c21 15 42 32 46 38 5 6 8 7
9 1 0 -5 7 8 15 30 10 31 12 33 9 10 l-5 -30 15 28 c14 24 16 76 13 372 -2
274 -6 347 -17 357 -11 11 -12 9 -6 -12 5 -19 4 -21 -4 -10 -6 8 -11 23 -11
33 0 10 -4 15 -10 12 -5 -3 -10 -2 -10 3 0 5 -17 17 -38 26 -35 16 -149 17
-1563 19 -838 1 -1551 -1 -1584 -5z m-108 -180 c-3 -7 -5 -2 -5 12 0 14 2 19
5 13 2 -7 2 -19 0 -25z m456 -216 c22 -56 44 -99 48 -95 4 5 25 51 47 103 l39
95 66 3 67 3 0 -151 0 -150 -40 0 -40 0 0 105 c0 58 -4 105 -8 105 -4 0 -27
-47 -51 -105 l-44 -106 -45 3 -46 3 -41 102 c-22 56 -44 105 -48 109 -4 4 -7
-43 -7 -104 l0 -112 -35 0 -35 0 0 150 0 151 66 -3 67 -3 40 -103z m907 -42
l0 -150 -33 0 c-18 0 -38 5 -45 12 -8 8 -15 8 -24 1 -40 -32 -124 -19 -158 24
-24 31 -27 99 -4 131 34 49 101 65 154 37 l30 -16 0 56 0 55 40 0 40 0 0 -150z
m460 120 c0 -29 -2 -30 -45 -30 -43 0 -45 1 -45 30 0 29 2 30 45 30 43 0 45
-1 45 -30z m670 -120 l0 -150 -40 0 c-27 0 -40 4 -40 14 0 10 -9 9 -39 -6
-103 -51 -204 47 -155 149 15 29 29 41 62 53 38 13 47 13 87 -1 l45 -17 0 54
0 54 40 0 40 0 0 -150z m278 123 c15 -11 29 -28 30 -37 6 -31 -7 -64 -28 -71
-19 -6 -19 -8 10 -35 43 -40 40 -89 -9 -114 -65 -34 -174 -27 -214 13 -28 28
-25 81 6 104 l24 19 -24 24 c-26 26 -26 62 -1 91 30 37 160 40 206 6z m-1761
-88 c20 -22 23 -37 23 -106 l0 -79 -35 0 c-23 0 -38 6 -42 15 -5 14 -8 14 -24
-1 -25 -23 -99 -23 -133 0 -35 23 -35 67 0 95 20 16 41 21 84 21 61 0 72 4 63
26 -6 16 -59 19 -68 4 -3 -5 -26 -10 -51 -10 -42 0 -44 1 -34 21 18 34 68 50
135 45 49 -4 64 -9 82 -31z m608 21 c36 -16 65 -59 65 -101 0 -25 0 -25 -90
-25 -49 0 -90 -4 -90 -8 0 -30 76 -45 86 -17 4 10 20 15 45 15 73 0 36 -62
-44 -74 -111 -17 -189 41 -173 127 15 78 114 119 201 83z m511 -17 c22 -20 24
-31 24 -106 l0 -84 -37 3 -38 3 -5 69 c-6 76 -19 93 -62 83 -31 -8 -48 -49
-48 -114 l0 -44 -37 3 -38 3 -3 103 -3 102 41 0 c29 0 40 -4 40 -15 0 -12 6
-11 33 6 40 25 99 20 133 -12z m-311 -84 l0 -100 -37 -3 -38 -3 0 106 0 106
38 -3 37 -3 0 -100z m1117 94 c3 -9 9 -9 25 0 12 6 34 11 48 11 24 0 26 -3 23
-32 -2 -27 -8 -34 -28 -36 -44 -6 -60 -30 -60 -89 l0 -54 -42 3 -43 3 -3 89
c-2 49 -1 95 2 103 7 16 73 18 78 2z"/>
<path d="M2071 1844 c-27 -35 -26 -49 4 -80 19 -18 31 -23 48 -19 48 15 62 70
27 105 -27 27 -55 25 -79 -6z"/>
<path d="M3200 1850 c-51 -51 7 -134 66 -95 45 29 22 115 -29 115 -9 0 -26 -9
-37 -20z"/>
<path d="M3524 1925 c-10 -26 4 -45 34 -45 38 0 60 24 42 45 -7 8 -26 15 -42
15 -16 0 -31 -6 -34 -15z"/>
<path d="M3520 1805 c-27 -33 14 -64 66 -51 20 5 25 12 22 34 -3 23 -8 27 -39
30 -24 2 -40 -2 -49 -13z"/>
<path d="M1751 1776 c-9 -10 -8 -16 4 -26 20 -16 62 -5 75 20 10 18 8 20 -28
20 -22 0 -45 -6 -51 -14z"/>
<path d="M2402 1858 c-21 -21 -13 -28 34 -28 38 0 45 3 42 18 -4 21 -57 29
-76 10z"/>
<path d="M841 1850 c0 -207 4 -347 9 -335 5 11 9 162 9 335 0 173 -4 324 -9
335 -5 12 -9 -128 -9 -335z"/>
</g>
</svg>
